<svg width="40" height="40" viewBox="0 0 40 40" fill="none" xmlns="http://www.w3.org/2000/svg">
<path d="M0 20C0 8.95431 8.95431 0 20 0C31.0457 0 40 8.95431 40 20C40 31.0457 31.0457 40 20 40C8.95431 40 0 31.0457 0 20Z" fill="#2B303B"/>
<path d="M8.68656 31.3136C9.42443 32.0515 10.5717 32.1135 11.4421 31.448C19.296 25.6231 21.1807 25.6035 28.5074 31.4354C29.3578 32.1015 30.5767 32.0509 31.3139 31.3137C32.0614 30.5662 32.1018 29.378 31.4561 28.507C25.8292 21.0576 25.8182 19.4495 31.4586 11.4315C32.083 10.5406 32.0415 9.41377 31.314 8.68619C30.5659 7.93813 29.4288 7.88637 28.538 8.53129C20.7147 14.3665 18.83 14.3861 11.5136 8.56455C10.6323 7.88815 9.44418 7.92857 8.68651 8.68624C7.9493 9.42344 7.8884 10.5911 8.55461 11.4826C14.1713 18.9627 14.1823 20.5503 8.52138 28.5479C7.90723 29.4695 7.96917 30.5962 8.68656 31.3136Z" fill="url(#paint0_linear_254_5112)" fill-opacity="0.32"/>
<g filter="url(#filter0_b_254_5112)">
<path d="M4 20C4 21.0435 4.76734 21.8986 5.85339 22.0435C15.5258 23.4782 16.8724 24.797 17.9293 34.1015C18.0597 35.1739 18.9574 36 19.9999 36C21.057 36 21.9258 35.1884 22.0851 34.1159C23.3737 24.8696 24.5032 23.7247 34.161 22.0435C35.2325 21.8551 36 21.0289 36 20C36 18.9421 35.2325 18.1014 34.1466 17.9275C24.4886 16.5218 23.142 15.203 22.0851 5.91302C21.9402 4.81157 21.0714 4 19.9999 4C18.9574 4 18.0886 4.78259 17.9293 5.88405C16.6117 15.1449 15.4968 16.2753 5.83885 17.9275C4.75294 18.1449 4 18.9855 4 20Z" fill="url(#paint1_linear_254_5112)" fill-opacity="0.8"/>
</g>
<defs>
<filter id="filter0_b_254_5112" x="-32" y="-32" width="104" height="104" filterUnits="userSpaceOnUse" color-interpolation-filters="sRGB">
<feFlood flood-opacity="0" result="BackgroundImageFix"/>
<feGaussianBlur in="BackgroundImageFix" stdDeviation="18"/>
<feComposite in2="SourceAlpha" operator="in" result="effect1_backgroundBlur_254_5112"/>
<feBlend mode="normal" in="SourceGraphic" in2="effect1_backgroundBlur_254_5112" result="shape"/>
</filter>
<linearGradient id="paint0_linear_254_5112" x1="31.3141" y1="8.68634" x2="-2.99709" y2="42.9975" gradientUnits="userSpaceOnUse">
<stop offset="0.313079" stop-color="white"/>
<stop offset="1" stop-color="white" stop-opacity="0"/>
</linearGradient>
<linearGradient id="paint1_linear_254_5112" x1="36" y1="20" x2="-12.5234" y2="20" gradientUnits="userSpaceOnUse">
<stop offset="0.313079" stop-color="white"/>
<stop offset="1" stop-color="white" stop-opacity="0"/>
</linearGradient>
</defs>
</svg>
