<svg xmlns="http://www.w3.org/2000/svg" width="320" height="156" fill="none" viewBox="0 0 320 156"><g clip-path="url(#a)"><path stroke="url(#b)" stroke-opacity="0.24" d="M0 26V0h26.667M0 26v26m0-26h26.667M0 52v26m0-26h26.667M0 78v26m0-26h26.667M0 104v26m0-26h26.667M0 130v26h26.667M0 130h26.667m0-130v26m0-26h26.666M26.667 26v26m0-26h26.666M26.667 52v26m0-26h26.666M26.667 78v26m0-26h26.666m-26.666 26v26m0-26h26.666m-26.666 26v26m0-26h26.666m-26.666 26h26.666m0-156v26m0-26H80M53.333 26v26m0-26H80M53.333 52v26m0-26H80M53.333 78v26m0-26H80m-26.667 26v26m0-26H80m-26.667 26v26m0-26H80m-26.667 26H80M80 0v26m0-26h26.667M80 26v26m0-26h26.667M80 52v26m0-26h26.667M80 78v26m0-26h26.667M80 104v26m0-26h26.667M80 130v26m0-26h26.667M80 156h26.667m0-156v26m0-26h26.666m-26.666 26v26m0-26h26.666m-26.666 26v26m0-26h26.666m-26.666 26v26m0-26h26.666m-26.666 26v26m0-26h26.666m-26.666 26v26m0-26h26.666m-26.666 26h26.666m0-156v26m0-26H160m-26.667 26v26m0-26H160m-26.667 26v26m0-26H160m-26.667 26v26m0-26H160m-26.667 26v26m0-26H160m-26.667 26v26m0-26H160m-26.667 26H160m0-156v26m0-26h26.667M160 26v26m0-26h26.667M160 52v26m0-26h26.667M160 78v26m0-26h26.667M160 104v26m0-26h26.667M160 130v26m0-26h26.667M160 156h26.667m0-156v26m0-26h26.666m-26.666 26v26m0-26h26.666m-26.666 26v26m0-26h26.666m-26.666 26v26m0-26h26.666m-26.666 26v26m0-26h26.666m-26.666 26v26m0-26h26.666m-26.666 26h26.666m0-156v26m0-26H240m-26.667 26v26m0-26H240m-26.667 26v26m0-26H240m-26.667 26v26m0-26H240m-26.667 26v26m0-26H240m-26.667 26v26m0-26H240m-26.667 26H240m0-156v26m0-26h26.667M240 26v26m0-26h26.667M240 52v26m0-26h26.667M240 78v26m0-26h26.667M240 104v26m0-26h26.667M240 130v26m0-26h26.667M240 156h26.667m0-156v26m0-26h26.666m-26.666 26v26m0-26h26.666m-26.666 26v26m0-26h26.666m-26.666 26v26m0-26h26.666m-26.666 26v26m0-26h26.666m-26.666 26v26m0-26h26.666m-26.666 26h26.666m0-156v26m0-26H320v26m-26.667 0v26m0-26H320m-26.667 26v26m0-26H320m-26.667 26v26m0-26H320m-26.667 26v26m0-26H320m-26.667 26v26m0-26H320m-26.667 26H320v-26m0-104v26m0 0v26m0 0v26m0 0v26"></path><path fill="#C0D5FF" d="M105.95 58c1.132 0 2.05.796 2.05 1.778v28.444c0 .982-.918 1.778-2.05 1.778H54.053c-1.746 0-2.692-1.774-1.561-2.929l11.678-11.92c.65-.664.65-1.638 0-2.302l-11.678-11.92C51.36 59.774 52.307 58 54.054 58h51.896zm108.1 0c-1.132 0-2.05.796-2.05 1.778v28.444c0 .982.918 1.778 2.05 1.778h51.897c1.746 0 2.693-1.774 1.561-2.929l-11.678-11.92c-.65-.664-.65-1.638 0-2.302l11.678-11.92c1.132-1.155.185-2.929-1.561-2.929H214.05z"></path><g filter="url(#c)"><path class="fill-background" d="M157.028 13.3a4 4 0 015.944 0l2.553 2.834a4 4 0 005.15.678l3.2-2.077a4 4 0 015.742 1.539l1.732 3.398a4 4 0 004.799 1.988l3.628-1.178a4 4 0 015.148 2.972l.794 3.731a4 4 0 004.121 3.163l3.809-.2a4 4 0 014.204 4.204l-.2 3.81a4.001 4.001 0 003.163 4.12l3.731.794a4 4 0 012.972 5.148l-1.178 3.628a4 4 0 001.988 4.8l3.398 1.731a4 4 0 011.539 5.742l-2.077 3.2a4 4 0 00.678 5.15l2.834 2.553a4 4 0 010 5.944l-2.834 2.553a4 4 0 00-.678 5.15l2.077 3.2a4 4 0 01-1.539 5.742l-3.398 1.732a3.999 3.999 0 00-1.988 4.799l1.178 3.628a4 4 0 01-2.972 5.148l-3.731.794a4 4 0 00-3.163 4.121l.2 3.809a4.002 4.002 0 01-4.204 4.204l-3.809-.2a4 4 0 00-4.121 3.163l-.794 3.731a4 4 0 01-5.148 2.972l-3.628-1.178a3.999 3.999 0 00-4.799 1.988l-1.732 3.398a4.001 4.001 0 01-5.742 1.539l-3.2-2.077a4 4 0 00-5.15.678l-2.553 2.834a4 4 0 01-5.944 0l-2.553-2.834a4 4 0 00-5.15-.678l-3.2 2.077a4.001 4.001 0 01-5.742-1.539l-1.732-3.398a3.999 3.999 0 00-4.799-1.988l-3.628 1.178a4 4 0 01-5.148-2.972l-.794-3.731a4 4 0 00-4.121-3.163l-3.809.2a4.002 4.002 0 01-4.204-4.204l.2-3.809a4 4 0 00-3.163-4.121l-3.731-.794a4 4 0 01-2.972-5.148l1.178-3.628a3.999 3.999 0 00-1.988-4.8l-3.398-1.731a4 4 0 01-1.539-5.742l2.077-3.2a4 4 0 00-.678-5.15L95.3 80.972a4 4 0 010-5.944l2.834-2.553a4 4 0 00.678-5.15l-2.077-3.2a4 4 0 011.539-5.742l3.398-1.732a4 4 0 001.988-4.799l-1.178-3.628a4 4 0 012.972-5.148l3.731-.794a4.001 4.001 0 003.163-4.12l-.2-3.81a4 4 0 014.204-4.203l3.809.198a4 4 0 004.121-3.162l.794-3.73a4 4 0 015.148-2.973l3.628 1.178a4 4 0 004.799-1.988l1.732-3.398a4 4 0 015.742-1.539l3.2 2.077a4 4 0 005.15-.678l2.553-2.834z"></path><path class="stroke-background" stroke-width="4" d="M167.011 14.796l-2.553-2.835a6 6 0 00-8.916 0l-2.553 2.835a2 2 0 01-2.575.339l-3.2-2.077a6 6 0 00-8.612 2.308l-1.733 3.398a2 2 0 01-2.399.994l-3.628-1.178a6 6 0 00-7.722 4.458l-.794 3.731a2 2 0 01-2.061 1.581l-3.809-.199a6 6 0 00-6.305 6.305l.199 3.81a2 2 0 01-1.581 2.06l-3.731.794a6 6 0 00-4.458 7.722l1.178 3.628a2 2 0 01-.994 2.4l-3.398 1.732a6 6 0 00-2.308 8.612l2.077 3.2a2 2 0 01-.34 2.575l-2.834 2.553a6 6 0 000 8.916l2.835 2.553a2 2 0 01.339 2.575l-2.077 3.2a6 6 0 002.307 8.612l3.399 1.733a2 2 0 01.994 2.399l-1.178 3.628a6 6 0 004.458 7.722l3.731.794a2 2 0 011.581 2.061l-.199 3.809a6 6 0 006.305 6.305l3.809-.199a2 2 0 012.061 1.581l.794 3.731a6 6 0 007.722 4.458l3.628-1.178a2 2 0 012.399.994l1.733 3.399a6 6 0 008.612 2.307l3.2-2.077a2 2 0 012.575.339l2.553 2.835a6 6 0 008.916 0l2.553-2.835a2 2 0 012.575-.339l3.2 2.077a6 6 0 008.612-2.307l1.733-3.399a2 2 0 012.399-.994l3.628 1.178a6 6 0 007.722-4.458l.794-3.731a2 2 0 012.061-1.581l3.809.199a6 6 0 006.305-6.305l-.199-3.809a2 2 0 011.581-2.061l3.731-.794a6 6 0 004.458-7.722l-1.178-3.628a2 2 0 01.994-2.399l3.399-1.733a6 6 0 002.307-8.612l-2.077-3.2a2 2 0 01.339-2.575l2.835-2.553a6 6 0 000-8.916l-2.835-2.553a2 2 0 01-.339-2.575l2.077-3.2a6 6 0 00-2.307-8.612l-3.399-1.733a2 2 0 01-.994-2.4l1.178-3.627a6 6 0 00-4.458-7.722l-3.731-.794a2 2 0 01-1.581-2.06l.199-3.81a6 6 0 00-6.305-6.305l-3.809.2a2 2 0 01-2.061-1.582l-.794-3.731a6 6 0 00-7.722-4.458l-3.628 1.178a2 2 0 01-2.399-.994l-1.733-3.398a6 6 0 00-8.612-2.308l-3.2 2.077a2 2 0 01-2.575-.34z"></path></g><path fill="#C0D5FF" d="M157.028 13.3a4 4 0 015.944 0l2.553 2.834a4 4 0 005.15.678l3.2-2.077a4 4 0 015.742 1.539l1.732 3.398a4 4 0 004.799 1.988l3.628-1.178a4 4 0 015.148 2.972l.794 3.731a4 4 0 004.121 3.163l3.809-.2a4 4 0 014.204 4.204l-.2 3.81a4.001 4.001 0 003.163 4.12l3.731.794a4 4 0 012.972 5.148l-1.178 3.628a4 4 0 001.988 4.8l3.398 1.731a4 4 0 011.539 5.742l-2.077 3.2a4 4 0 00.678 5.15l2.834 2.553a4 4 0 010 5.944l-2.834 2.553a4 4 0 00-.678 5.15l2.077 3.2a4 4 0 01-1.539 5.742l-3.398 1.732a3.999 3.999 0 00-1.988 4.799l1.178 3.628a4 4 0 01-2.972 5.148l-3.731.794a4 4 0 00-3.163 4.121l.2 3.809a4.002 4.002 0 01-4.204 4.204l-3.809-.2a4 4 0 00-4.121 3.163l-.794 3.731a4 4 0 01-5.148 2.972l-3.628-1.178a3.999 3.999 0 00-4.799 1.988l-1.732 3.398a4.001 4.001 0 01-5.742 1.539l-3.2-2.077a4 4 0 00-5.15.678l-2.553 2.834a4 4 0 01-5.944 0l-2.553-2.834a4 4 0 00-5.15-.678l-3.2 2.077a4.001 4.001 0 01-5.742-1.539l-1.732-3.398a3.999 3.999 0 00-4.799-1.988l-3.628 1.178a4 4 0 01-5.148-2.972l-.794-3.731a4 4 0 00-4.121-3.163l-3.809.2a4.002 4.002 0 01-4.204-4.204l.2-3.809a4 4 0 00-3.163-4.121l-3.731-.794a4 4 0 01-2.972-5.148l1.178-3.628a3.999 3.999 0 00-1.988-4.8l-3.398-1.731a4 4 0 01-1.539-5.742l2.077-3.2a4 4 0 00-.678-5.15L95.3 80.972a4 4 0 010-5.944l2.834-2.553a4 4 0 00.678-5.15l-2.077-3.2a4 4 0 011.539-5.742l3.398-1.732a4 4 0 001.988-4.799l-1.178-3.628a4 4 0 012.972-5.148l3.731-.794a4.001 4.001 0 003.163-4.12l-.2-3.81a4 4 0 014.204-4.203l3.809.198a4 4 0 004.121-3.162l.794-3.73a4 4 0 015.148-2.973l3.628 1.178a4 4 0 004.799-1.988l1.732-3.398a4 4 0 015.742-1.539l3.2 2.077a4 4 0 005.15-.678l2.553-2.834z"></path><path class="fill-background" d="M112 78c0-26.51 21.49-48 48-48s48 21.49 48 48-21.49 48-48 48-48-21.49-48-48z"></path><path stroke="url(#d)" stroke-opacity="0.16" stroke-width="4" d="M110 78c0 27.614 22.386 50 50 50s50-22.386 50-50-22.386-50-50-50-50 22.386-50 50z" style="mix-blend-mode: color-dodge;"></path></g><defs><radialGradient id="b" cx="0" cy="0" r="1" gradientTransform="matrix(0 78 -129.665 0 160 78)" gradientUnits="userSpaceOnUse"><stop stop-color="#717784"></stop><stop offset="1" stop-color="#717784" stop-opacity="0"></stop></radialGradient><linearGradient id="d" x1="160" x2="160" y1="30" y2="126" gradientUnits="userSpaceOnUse"><stop stop-color="#122368"></stop><stop offset="1" stop-color="#122368" stop-opacity="0"></stop></linearGradient><clipPath id="a"><path class="fill-background" d="M0 0H320V156H0z"></path></clipPath><filter id="c" width="144.046" height="144.046" x="87.977" y="6.977" color-interpolation-filters="sRGB" filterUnits="userSpaceOnUse"><feFlood flood-opacity="0" result="BackgroundImageFix"></feFlood><feColorMatrix in="SourceAlpha" result="hardAlpha" values="0 0 0 0 0 0 0 0 0 0 0 0 0 0 0 0 0 0 127 0"></feColorMatrix><feOffset dy="1"></feOffset><feGaussianBlur stdDeviation="1"></feGaussianBlur><feComposite in2="hardAlpha" operator="out"></feComposite><feColorMatrix values="0 0 0 0 0.0392157 0 0 0 0 0.0509804 0 0 0 0 0.0784314 0 0 0 0.03 0"></feColorMatrix><feBlend in2="BackgroundImageFix" result="effect1_dropShadow_35281_18636"></feBlend><feBlend in="SourceGraphic" in2="effect1_dropShadow_35281_18636" result="shape"></feBlend></filter></defs></svg>