<svg width="24" height="24" viewBox="0 0 24 24" fill="none" xmlns="http://www.w3.org/2000/svg">
<path d="M1.80278 13.1736C1.74637 13.1764 1.691 13.1566 1.64797 13.1178C1.61124 13.0713 1.59418 13.0108 1.60074 12.9505V7.26111C1.59418 7.20087 1.61124 7.14035 1.64797 7.09377C1.69153 7.05863 1.74558 7.0419 1.80015 7.04636H2.38265C2.49285 7.03465 2.59203 7.11692 2.6083 7.23322L2.66602 7.45633C2.83368 7.28425 3.03178 7.14871 3.24851 7.05751C3.47023 6.96213 3.70716 6.91277 3.94645 6.91249C4.42347 6.89576 4.87949 7.12138 5.17441 7.52048C5.49924 7.99627 5.66061 8.57608 5.63096 9.16315C5.63988 9.5893 5.563 10.0124 5.40531 10.4042C5.27517 10.7305 5.06369 11.013 4.79396 11.2214C4.53315 11.4105 4.22275 11.5081 3.9071 11.5003C3.69273 11.5014 3.47967 11.4637 3.27738 11.3887C3.09135 11.3223 2.91948 11.218 2.77097 11.0819V12.9561C2.77675 13.0158 2.761 13.0757 2.72637 13.1234C2.6815 13.1602 2.62509 13.177 2.56894 13.1708L1.80278 13.1736ZM3.56862 10.5632C3.82786 10.583 4.0787 10.4597 4.23245 10.2369C4.39592 9.92509 4.46991 9.56922 4.44498 9.21335C4.47017 8.85414 4.39723 8.49493 4.23508 8.17866C4.0808 7.9536 3.82733 7.83005 3.566 7.85236C3.28866 7.85264 3.01683 7.9324 2.77885 8.08384V10.3289C3.01499 10.4851 3.28787 10.5671 3.566 10.566L3.56862 10.5632Z" fill="#00A8E1"/>
<path d="M6.62808 11.4109C6.53415 11.4296 6.44363 11.3638 6.42605 11.2637C6.42211 11.2414 6.42211 11.2185 6.42605 11.1962V7.26103C6.41949 7.20078 6.43654 7.14027 6.47328 7.09369C6.51683 7.05855 6.57088 7.04182 6.62546 7.04628H7.20533C7.31553 7.03457 7.41471 7.11684 7.43098 7.23314L7.53593 7.69052C7.70832 7.47605 7.91429 7.29477 8.14466 7.15505C8.33253 7.05046 8.54139 6.99608 8.75339 6.99608H8.86622C8.92315 6.99078 8.98009 7.00751 9.02627 7.04349C9.06301 7.09006 9.08006 7.15058 9.0735 7.21083V7.93037C9.07796 7.98838 9.06222 8.04583 9.0289 8.09212C8.98508 8.13117 8.92814 8.1493 8.87147 8.14233H8.72715C8.66759 8.14233 8.59255 8.14233 8.5015 8.14233C8.34985 8.14567 8.19871 8.16436 8.0502 8.1981C7.8954 8.2285 7.74426 8.27619 7.5989 8.34034V11.199C7.6031 11.257 7.58736 11.3144 7.5543 11.3607C7.51048 11.3998 7.45354 11.4179 7.39687 11.4109H6.62808Z" fill="#00A8E1"/>
<path d="M10.2361 6.36575C10.0571 6.37523 9.8815 6.31136 9.74526 6.18726C9.61874 6.06148 9.55075 5.88298 9.55889 5.69919C9.54996 5.51429 9.61795 5.33468 9.74526 5.20834C10.033 4.96376 10.4419 4.96376 10.7296 5.20834C10.8562 5.33412 10.9241 5.51262 10.916 5.69641C10.9241 5.8802 10.8562 6.05869 10.7296 6.18447C10.5931 6.31025 10.4165 6.37523 10.2361 6.36575ZM9.85026 11.4137C9.75629 11.4324 9.66572 11.3666 9.64814 11.2664C9.6442 11.2441 9.6442 11.2213 9.64814 11.199V7.26099C9.64157 7.20075 9.65864 7.14023 9.69539 7.09366C9.73896 7.05852 9.79304 7.04178 9.84764 7.04624H10.622C10.6782 7.04011 10.7346 7.05684 10.7795 7.09366C10.8142 7.14135 10.8299 7.20131 10.8241 7.26099V11.199C10.8286 11.257 10.8128 11.3144 10.7795 11.3607C10.7357 11.3998 10.6787 11.4179 10.622 11.4109L9.85026 11.4137Z" fill="#00A8E1"/>
<path d="M12.0226 11.4107C11.9287 11.4294 11.8382 11.3636 11.8206 11.2635C11.8166 11.2411 11.8166 11.2183 11.8206 11.196V7.26079C11.814 7.20055 11.8311 7.14003 11.8678 7.09346C11.9114 7.05832 11.9654 7.04158 12.02 7.04605H12.5999C12.7101 7.03433 12.8092 7.11661 12.8255 7.2329L12.8911 7.46438C13.1299 7.28952 13.3881 7.14728 13.6599 7.04047C13.8842 6.95736 14.1201 6.91413 14.3578 6.91218C14.7713 6.87453 15.1686 7.09123 15.3811 7.46996C15.6207 7.29482 15.881 7.15426 16.1552 7.05162C16.3971 6.966 16.6505 6.92278 16.9056 6.92333C17.2278 6.90269 17.5437 7.02373 17.7793 7.258C17.9966 7.51124 18.1083 7.8473 18.0889 8.1895V11.1988C18.0931 11.2568 18.0774 11.3142 18.0443 11.3605C18.0005 11.3996 17.9436 11.4177 17.8869 11.4107H17.1234C17.0294 11.4294 16.9389 11.3636 16.9213 11.2635C16.9174 11.2411 16.9174 11.2183 16.9213 11.196V8.45166C16.9213 8.06317 16.7579 7.86878 16.4307 7.86878C16.1258 7.8724 15.8253 7.94882 15.5517 8.09189V11.1988C15.5561 11.2568 15.5404 11.3142 15.5071 11.3605C15.4633 11.3996 15.4063 11.4177 15.3496 11.4107H14.5782C14.4843 11.4294 14.3938 11.3636 14.3762 11.2635C14.3723 11.2411 14.3723 11.2183 14.3762 11.196V8.45166C14.3762 8.06317 14.2127 7.86878 13.8855 7.86878C13.577 7.87073 13.2731 7.95021 12.9987 8.10026V11.196C13.0029 11.254 12.9871 11.3114 12.9541 11.3577C12.9103 11.3968 12.8533 11.4149 12.7966 11.4079L12.0226 11.4107Z" fill="#00A8E1"/>
<path d="M20.8965 11.5396C20.3311 11.5789 19.7756 11.368 19.3616 10.9567C18.983 10.4959 18.7938 9.89325 18.8368 9.28331C18.799 8.65106 18.9906 8.02718 19.3721 7.54023C19.7696 7.10405 20.3261 6.87285 20.8965 6.90715C21.3185 6.88038 21.7351 7.01731 22.0694 7.29202C22.3522 7.5486 22.5081 7.92929 22.4918 8.32392C22.511 8.71019 22.3376 9.07888 22.0353 9.29447C21.6283 9.54157 21.1621 9.65591 20.6945 9.62356C20.4295 9.62691 20.165 9.59511 19.9074 9.52874C19.9089 9.83719 20.0259 10.1323 20.2327 10.3487C20.4775 10.5333 20.7756 10.6212 21.075 10.5969C21.2214 10.5969 21.3678 10.5866 21.5131 10.5662C21.7131 10.5333 21.9109 10.4884 22.1061 10.4323H22.1534H22.1927C22.2838 10.4323 22.3292 10.4984 22.3292 10.6304V11.0236C22.3341 11.0903 22.3215 11.1569 22.2924 11.216C22.2552 11.2626 22.2058 11.2964 22.1507 11.3136C21.7493 11.4707 21.3242 11.5474 20.8965 11.5396ZM20.6342 8.85382C20.8407 8.86971 21.0471 8.82342 21.2298 8.71995C21.3552 8.62875 21.426 8.47397 21.4161 8.31277C21.4161 7.95383 21.2148 7.7745 20.8126 7.7745C20.2965 7.7745 19.9984 8.11113 19.9178 8.78409C20.1522 8.83179 20.3904 8.85521 20.6289 8.85382H20.6342Z" fill="#00A8E1"/>
<path d="M20.4741 16.2167C18.1756 18.0183 14.8434 18.9749 11.9755 18.9749C8.14313 18.9967 4.44089 17.4982 1.59298 14.772C1.37782 14.5656 1.56936 14.2839 1.82912 14.4429C4.99295 16.3631 8.5737 17.3715 12.2169 17.3685C14.9355 17.3531 17.6246 16.7683 20.1304 15.6477C20.5292 15.472 20.8546 15.9071 20.4741 16.2167Z" fill="#00A8E1"/>
<path d="M21.4423 15.07C21.1484 14.6712 19.5006 14.8804 18.7581 14.9752C18.5324 15.0031 18.4957 14.7967 18.7004 14.6461C20.0123 13.6644 22.1717 13.9489 22.421 14.278C22.6702 14.607 22.3554 16.9023 21.109 17.9984C20.9201 18.1657 20.7391 18.0765 20.823 17.8534C21.1038 17.1031 21.7256 15.4577 21.4423 15.07Z" fill="#00A8E1"/>
</svg>
