<svg xmlns="http://www.w3.org/2000/svg" width="32" height="32" fill="none" viewBox="0 0 32 32"><ellipse cx="16" cy="16.016" fill="url(#a)" rx="12.761" ry="12.777"/><path fill="url(#b)" d="m13.155 8.51 8.408-1.67a.62.62 0 0 1 .74.607V20.33a2.323 2.323 0 0 1-1.84 2.273l-.742.158a2.08 2.08 0 0 1-2.513-2.035c0-.932.628-1.747 1.53-1.984l2.105-.554a.65.65 0 0 0 .484-.629v-5.98a.434.434 0 0 0-.521-.425l-7.007 1.456a.465.465 0 0 0-.37.455v8.931c0 1.2-.84 2.236-2.013 2.485l-.509.108a2.144 2.144 0 0 1-2.588-2.097c0-.869.584-1.628 1.424-1.85l2.203-.585a.62.62 0 0 0 .461-.599V9.422a.93.93 0 0 1 .748-.911Z"/><path fill="url(#c)" fill-rule="evenodd" d="M30 16c0 7.732-6.268 14-14 14S2 23.732 2 16 8.268 2 16 2s14 6.268 14 14Zm-1.239.015c0 7.057-5.713 12.777-12.761 12.777-7.048 0-12.761-5.72-12.761-12.777C3.239 8.96 8.952 3.24 16 3.24c7.048 0 12.761 5.72 12.761 12.776Z" clip-rule="evenodd"/><defs><radialGradient id="b" cx="0" cy="0" r="1" gradientTransform="rotate(-55.132 30.727 5.902) scale(28.0109 21.9967)" gradientUnits="userSpaceOnUse"><stop stop-color="#7A66FB"/><stop offset=".44" stop-color="#52A2F4"/><stop offset=".702" stop-color="#FC5D6D"/><stop offset="1" stop-color="#E85E7B"/></radialGradient><radialGradient id="c" cx="0" cy="0" r="1" gradientTransform="rotate(-55.132 30.727 5.902) scale(28.0109 21.9967)" gradientUnits="userSpaceOnUse"><stop stop-color="#7A66FB"/><stop offset=".44" stop-color="#52A2F4"/><stop offset=".702" stop-color="#FC5D6D"/><stop offset="1" stop-color="#E85E7B"/></radialGradient><linearGradient id="a" x1="16" x2="16" y1="3.239" y2="28.792" gradientUnits="userSpaceOnUse"><stop stop-color="#fff"/><stop offset="1" stop-color="#DDE2E7"/></linearGradient></defs></svg>