<svg xmlns="http://www.w3.org/2000/svg" class="recharts-surface" width="376" height="70" viewBox="0 0 376 70" style="width: 100%; height: 100%;"><title></title><desc></desc><defs><clipPath id="recharts10-clip"><rect x="0" y="1" height="39" width="376"></rect></clipPath></defs><g class="recharts-layer recharts-cartesian-axis recharts-xAxis xAxis [&amp;_.recharts-cartesian-axis-tick_text]:fill-text-soft-400 [&amp;_.recharts-cartesian-axis-tick_text]:text-subheading-2xs"><g class="recharts-cartesian-axis-ticks"><g class="recharts-layer recharts-cartesian-axis-tick"><text orientation="bottom" width="376" height="30" stroke="none" x="75.2" y="54" class="recharts-text recharts-cartesian-axis-tick-value" text-anchor="middle" fill="#666"><tspan x="75.2" dy="0.71em">FEB</tspan></text></g><g class="recharts-layer recharts-cartesian-axis-tick"><text orientation="bottom" width="376" height="30" stroke="none" x="150.4" y="54" class="recharts-text recharts-cartesian-axis-tick-value" text-anchor="middle" fill="#666"><tspan x="150.4" dy="0.71em">MAR</tspan></text></g><g class="recharts-layer recharts-cartesian-axis-tick"><text orientation="bottom" width="376" height="30" stroke="none" x="225.60000000000002" y="54" class="recharts-text recharts-cartesian-axis-tick-value" text-anchor="middle" fill="#666"><tspan x="225.60000000000002" dy="0.71em">APR</tspan></text></g><g class="recharts-layer recharts-cartesian-axis-tick"><text orientation="bottom" width="376" height="30" stroke="none" x="300.8" y="54" class="recharts-text recharts-cartesian-axis-tick-value" text-anchor="middle" fill="#666"><tspan x="300.8" dy="0.71em">MAY</tspan></text></g><g class="recharts-layer recharts-cartesian-axis-tick"><text orientation="bottom" width="376" height="30" stroke="none" x="365.578125" y="54" class="recharts-text recharts-cartesian-axis-tick-value" text-anchor="middle" fill="#666"><tspan x="365.578125" dy="0.71em">JUN</tspan></text></g></g></g><g class="recharts-cartesian-grid"><g class="recharts-cartesian-grid-vertical"><line class="stroke-stroke-soft-200" stroke-dasharray="2 2" stroke-width="1" stroke="#ccc" fill="none" x="0" y="1" width="376" height="39" x1="75.2" y1="1" x2="75.2" y2="40"></line><line class="stroke-stroke-soft-200" stroke-dasharray="2 2" stroke-width="1" stroke="#ccc" fill="none" x="0" y="1" width="376" height="39" x1="150.4" y1="1" x2="150.4" y2="40"></line><line class="stroke-stroke-soft-200" stroke-dasharray="2 2" stroke-width="1" stroke="#ccc" fill="none" x="0" y="1" width="376" height="39" x1="225.60000000000002" y1="1" x2="225.60000000000002" y2="40"></line><line class="stroke-stroke-soft-200" stroke-dasharray="2 2" stroke-width="1" stroke="#ccc" fill="none" x="0" y="1" width="376" height="39" x1="300.8" y1="1" x2="300.8" y2="40"></line><line class="stroke-stroke-soft-200" stroke-dasharray="2 2" stroke-width="1" stroke="#ccc" fill="none" x="0" y="1" width="376" height="39" x1="376" y1="1" x2="376" y2="40"></line><line class="stroke-stroke-soft-200" stroke-dasharray="2 2" stroke-width="1" stroke="#ccc" fill="none" x="0" y="1" width="376" height="39" x1="0" y1="1" x2="0" y2="40"></line></g></g><path class="stroke-primary-base" width="376" height="39" stroke-width="2" stroke="#3182bd" fill="none" d="M0,36.1L15.646256659951717,36.1A8,8,0,0,0,21.105356782930244,33.94792491806246L54.09464321706976,3.152075081937537A8,8,0,0,1,59.553743340048285,0.9999999999999997L92.04892093662711,1A8,8,0,0,1,95.73200955589208,1.8982496366993509L129.8679904441079,19.60175036330065A8,8,0,0,0,133.55107906337287,20.5L167.42489978788487,20.5A8,8,0,0,1,170.80851123434277,21.250781174540318L205.19148876565723,37.299218825459675A8,8,0,0,0,208.57510021211513,38.05L241.1207656937824,38.05A8,8,0,0,0,246.73578944889508,35.748377684000985L279.66421055110493,3.301622315999017A8,8,0,0,1,285.2792343062176,0.9999999999999996L317.64892093662706,1A8,8,0,0,1,321.33200955589206,1.8982496366993509L355.4679904441079,19.60175036330065A8,8,0,0,0,359.1510790633729,20.5L376,20.5"></path><g class="recharts-layer recharts-line"><path stroke-width="2" opacity="0" stroke="#3182bd" fill="none" width="376" height="39" class="recharts-curve recharts-line-curve" d="M0,36.1L37.6,36.1L37.6,1L112.8,1L112.8,20.5L188,20.5L188,38.05L263.2,38.05L263.2,1L338.4,1L338.4,20.5L376,20.5"></path><g class="recharts-layer"></g></g></svg>