<svg xmlns="http://www.w3.org/2000/svg" class="recharts-surface" width="120" height="40" viewBox="0 0 120 40" style="width: 100%; height: 100%;"><title></title><desc></desc><defs><clipPath id="recharts7-clip"><rect x="0" y="1" height="38" width="120"></rect></clipPath></defs><g class="recharts-layer recharts-line text-primary-base"><path class="recharts-curve recharts-line-curve" stroke="currentColor" stroke-width="2" fill="none" width="120" height="38" d="M0,27.125C3.636,26.333,7.273,25.542,10.909,22.375C14.545,19.208,18.182,1,21.818,1C25.455,1,29.091,16.042,32.727,17.625C36.364,19.208,40,20,43.636,20C47.273,20,50.909,14.458,54.545,12.875C58.182,11.292,61.818,12.083,65.455,10.5C69.091,8.917,72.727,1,76.364,1C80,1,83.636,4.958,87.273,8.125C90.909,11.292,94.545,17.546,98.182,20C101.818,22.454,105.455,23.681,109.091,23.681C112.727,23.681,116.364,20.653,120,17.625"></path><g class="recharts-layer"></g></g></svg>