<svg width="57" height="28" viewBox="0 0 57 28" fill="none" xmlns="http://www.w3.org/2000/svg">
<path d="M48.8081 2.13274C49.1552 1.32678 50.2979 1.32678 50.645 2.13274L51.3844 3.8496C51.5291 4.18578 51.846 4.416 52.2105 4.4498L54.0718 4.62243C54.9456 4.70347 55.2987 5.79028 54.6394 6.36944L53.2351 7.60315C52.9601 7.84472 52.839 8.21722 52.9195 8.57429L53.3305 10.3978C53.5234 11.2539 52.599 11.9256 51.8444 11.4775L50.2371 10.5232C49.9224 10.3363 49.5307 10.3363 49.216 10.5232L47.6087 11.4775C46.8542 11.9256 45.9297 11.2539 46.1226 10.3978L46.5336 8.57429C46.6141 8.21722 46.4931 7.84472 46.2181 7.60315L44.8137 6.36944C44.1544 5.79028 44.5076 4.70347 45.3813 4.62243L47.2426 4.4498C47.6071 4.416 47.924 4.18578 48.0688 3.8496L48.8081 2.13274Z" fill="#F7C000"/>
<path d="M0.480469 20.1648L1.28906 16.9539C1.51562 17.2039 1.83203 17.4421 2.23828 17.6687C2.64453 17.8953 3.08203 18.0789 3.55078 18.2195C4.02734 18.3523 4.47266 18.4187 4.88672 18.4187C5.28516 18.4187 5.59375 18.3484 5.8125 18.2078C6.03125 18.0671 6.14062 17.8796 6.14062 17.6453C6.14062 17.4265 6.05469 17.2429 5.88281 17.0945C5.71094 16.9382 5.48438 16.7976 5.20312 16.6726C4.92188 16.5476 4.60156 16.4226 4.24219 16.2976C3.74219 16.1101 3.21875 15.8875 2.67188 15.6296C2.125 15.364 1.66406 15.0086 1.28906 14.5632C0.921875 14.1101 0.738281 13.5086 0.738281 12.7586C0.738281 12.032 0.925781 11.4031 1.30078 10.8718C1.68359 10.3406 2.22266 9.93043 2.91797 9.64137C3.61328 9.3523 4.42969 9.20777 5.36719 9.20777C6.90625 9.20777 8.44922 9.59449 9.99609 10.3679L8.91797 13.3445C8.66797 13.1414 8.34766 12.95 7.95703 12.7703C7.56641 12.5828 7.16406 12.4343 6.75 12.325C6.34375 12.2078 5.98438 12.1492 5.67188 12.1492C5.35156 12.1492 5.10547 12.2117 4.93359 12.3367C4.76172 12.4617 4.67578 12.6296 4.67578 12.8406C4.67578 13.0281 4.75 13.1961 4.89844 13.3445C5.04688 13.4851 5.26172 13.6179 5.54297 13.7429C5.82422 13.8679 6.14844 14.0007 6.51562 14.1414C7.04688 14.3289 7.58594 14.5554 8.13281 14.8211C8.67969 15.0867 9.14062 15.4461 9.51562 15.8992C9.89844 16.3523 10.0898 16.9578 10.0898 17.7156C10.0898 18.4578 9.88672 19.1062 9.48047 19.6609C9.07422 20.2078 8.5 20.6336 7.75781 20.9382C7.02344 21.2429 6.15625 21.3953 5.15625 21.3953C3.48438 21.3953 1.92578 20.9851 0.480469 20.1648ZM20.4023 20.8445C19.4648 21.2117 18.5547 21.3953 17.6719 21.3953C16.7422 21.3953 15.918 21.2 15.1992 20.8093C14.4883 20.4109 13.9336 19.864 13.5352 19.1687C13.1367 18.4656 12.9375 17.6492 12.9375 16.7195V12.8757H10.8867V9.44215H13.1484V6.51246H16.7812V9.44215H19.9453V12.8757H16.7812V16.0281C16.7812 16.6453 16.9531 17.1218 17.2969 17.4578C17.6406 17.7937 18.0547 17.9617 18.5391 17.9617C19.0078 17.9617 19.4648 17.8132 19.9102 17.5164L20.4023 20.8445ZM32.6953 21.1609H29.332L29.1328 19.825C28.7031 20.325 28.1797 20.7117 27.5625 20.9851C26.9453 21.2586 26.2656 21.3953 25.5234 21.3953C24.7109 21.3953 23.9883 21.239 23.3555 20.9265C22.7227 20.614 22.2227 20.1843 21.8555 19.6375C21.4961 19.0828 21.3164 18.4539 21.3164 17.7507C21.3164 17.0086 21.5117 16.3562 21.9023 15.7937C22.3008 15.2312 22.8477 14.7898 23.543 14.4695C24.2383 14.1492 25.0312 13.989 25.9219 13.989C26.4297 13.989 26.9297 14.0437 27.4219 14.1531C27.9219 14.2625 28.3984 14.4148 28.8516 14.6101V14.364C28.8516 13.95 28.7266 13.5906 28.4766 13.2859C28.2266 12.9812 27.8867 12.7429 27.457 12.5711C27.0273 12.3914 26.5391 12.3015 25.9922 12.3015C25.4531 12.3015 24.9297 12.3875 24.4219 12.5593C23.9141 12.7234 23.4492 12.9617 23.0273 13.2742L22.0195 10.4031C22.8477 10.0046 23.6719 9.70777 24.4922 9.51246C25.3203 9.30933 26.1172 9.20777 26.8828 9.20777C28.0625 9.20777 29.0859 9.43824 29.9531 9.89918C30.8281 10.3601 31.5039 11.0125 31.9805 11.8562C32.457 12.6921 32.6953 13.6843 32.6953 14.8328V21.1609ZM26.3906 18.5242C26.7891 18.5242 27.1719 18.4382 27.5391 18.2664C27.9141 18.0867 28.2188 17.8523 28.4531 17.5632C28.6953 17.2742 28.8203 16.9656 28.8281 16.6375V16.5906C28.5156 16.3875 28.168 16.2351 27.7852 16.1336C27.4023 16.0242 27.0195 15.9695 26.6367 15.9695C26.0664 15.9695 25.6094 16.0867 25.2656 16.3211C24.9219 16.5476 24.75 16.8523 24.75 17.2351C24.75 17.4773 24.8203 17.7 24.9609 17.9031C25.1016 18.0984 25.2969 18.2507 25.5469 18.3601C25.7969 18.4695 26.0781 18.5242 26.3906 18.5242ZM38.918 21.1609H35.0742V9.44215H38.4141L38.543 11.3757C38.9336 10.6882 39.4531 10.157 40.1016 9.78199C40.75 9.39918 41.4922 9.20777 42.3281 9.20777C42.5859 9.20777 42.8477 9.2273 43.1133 9.26637C43.3867 9.30543 43.6602 9.36402 43.9336 9.44215L43.4648 12.8992C42.918 12.7273 42.4062 12.6414 41.9297 12.6414C41.3203 12.6414 40.7891 12.7742 40.3359 13.0398C39.8828 13.3054 39.5312 13.6765 39.2812 14.1531C39.0391 14.6296 38.918 15.1921 38.918 15.8406V21.1609Z" fill="#ffff"/>
</svg>