<svg xmlns="http://www.w3.org/2000/svg" viewBox="-150 -150 400 300" width="500" height="300">
    <path
        d="M137.386-140.5h159.669c7.952 0 12.866 8.673 8.779 15.494L196.6 57.309A20.966 20.966 0 0 1 178.614 67.5H18.944c-7.951 0-12.865-8.673-8.778-15.494L119.4-130.309a20.966 20.966 0 0 1 17.986-10.191Z"
        stroke="#2b303b" fill="none" />
    <path
        d="M175.386-79.5h159.669c7.952 0 12.866 8.673 8.779 15.494L234.6 118.309a20.966 20.966 0 0 1-17.986 10.191H56.944c-7.952 0-12.865-8.673-8.778-15.494L157.4-69.309A20.966 20.966 0 0 1 175.386-79.5Z"
        stroke="#2b303b" fill="none" />
</svg>