<svg width="966" height="456" viewBox="0 0 966 456" fill="none" xmlns="http://www.w3.org/2000/svg">
<path d="M1.00004 0L1 456M69.8572 0L69.8571 456M138.714 0L138.714 456M207.571 0L207.571 456M276.429 0L276.429 456M345.286 0L345.286 456M414.143 0L414.143 456M483 0L483 456M551.857 0V456M620.714 0L620.714 456M689.571 0V456M758.428 0V456M827.286 0V456M896.143 0V456M965 0V456" stroke="url(#paint0_linear_3903_28938)" stroke-opacity="0.16"/>
<defs>
<linearGradient id="paint0_linear_3903_28938" x1="483" y1="0" x2="483" y2="456" gradientUnits="userSpaceOnUse">
<stop stop-color="#717784"/>
<stop offset="1" stop-color="#717784" stop-opacity="0"/>
</linearGradient>
</defs>
</svg>
