<svg width="24" height="24" viewBox="0 0 24 24" fill="none" xmlns="http://www.w3.org/2000/svg">
<path d="M12 22.5C17.799 22.5 22.5 17.799 22.5 12C22.5 6.20101 17.799 1.5 12 1.5C6.20101 1.5 1.5 6.20101 1.5 12C1.5 17.799 6.20101 22.5 12 22.5Z" fill="#FF0000"/>
<path d="M12 7.21109C14.641 7.21109 16.7889 9.35902 16.7889 12C16.7889 14.641 14.641 16.7889 12 16.7889C9.35902 16.7889 7.21109 14.641 7.21109 12C7.21109 9.35902 9.35902 7.21109 12 7.21109ZM12 6.75C9.09995 6.75 6.75 9.09995 6.75 12C6.75 14.9001 9.09995 17.25 12 17.25C14.9001 17.25 17.25 14.9001 17.25 12C17.25 9.09995 14.9001 6.75 12 6.75Z" fill="white"/>
<path d="M10.5 15L15 11.8696L10.5 9V15Z" fill="white"/>
</svg>
