<svg width="24" height="24" viewBox="0 0 24 24" fill="none" xmlns="http://www.w3.org/2000/svg">
<path d="M1.5 8.7C1.5 6.17976 1.5 4.91965 1.99047 3.95704C2.4219 3.11031 3.11031 2.4219 3.95704 1.99047C4.91965 1.5 6.17976 1.5 8.7 1.5H15.3C17.8202 1.5 19.0804 1.5 20.043 1.99047C20.8897 2.4219 21.5781 3.11031 22.0095 3.95704C22.5 4.91965 22.5 6.17976 22.5 8.7V15.3C22.5 17.8202 22.5 19.0804 22.0095 20.043C21.5781 20.8897 20.8897 21.5781 20.043 22.0095C19.0804 22.5 17.8202 22.5 15.3 22.5H8.7C6.17976 22.5 4.91965 22.5 3.95704 22.0095C3.11031 21.5781 2.4219 20.8897 1.99047 20.043C1.5 19.0804 1.5 17.8202 1.5 15.3V8.7Z" fill="#4087FC"/>
<path d="M6.2 7.5C5.67533 7.5 5.25 7.9797 5.25 8.57143V13.7679C5.25 15.2768 6.33459 16.5 7.6725 16.5L13.3 16.4464C13.8247 16.4464 14.25 15.9668 14.25 15.375V10.125C14.25 8.6161 12.9629 7.50002 11.625 7.50002L6.2 7.5Z" fill="white"/>
<path d="M15.5342 9.5457C15.1947 9.88137 15 10.3658 15 10.875V13.0495C15 13.5587 15.1947 14.0431 15.5342 14.3788L17.6466 16.2393C18.0765 16.6644 18.75 16.3201 18.75 15.6754V8.35137C18.75 7.70666 18.0765 7.3624 17.6466 7.78742L15.5342 9.5457Z" fill="white"/>
</svg>
