<svg width="28" height="28" viewBox="0 0 28 28" fill="none" xmlns="http://www.w3.org/2000/svg">
<path d="M13.5508 9.37064C11.667 9.37019 9.78677 9.20902 7.93044 8.88891C7.87921 8.87976 7.83031 8.86054 7.78656 8.83238C7.74281 8.80421 7.70508 8.76764 7.67554 8.7248C7.646 8.68197 7.62525 8.63369 7.61448 8.58279C7.60371 8.53188 7.60314 8.47934 7.6128 8.42821L8.32946 4.57462C8.34862 4.473 8.407 4.38299 8.49197 4.32405C8.57694 4.2651 8.6817 4.24195 8.78359 4.25961C12.0681 4.81653 15.4247 4.79344 18.7012 4.19135C19.6453 4.01642 20.5795 3.79122 21.4995 3.51671C21.5993 3.48687 21.7068 3.49772 21.7986 3.54692C21.8903 3.59611 21.9588 3.67964 21.9892 3.77922L23.1704 7.51732C23.186 7.56703 23.1916 7.61935 23.1868 7.67124C23.182 7.72311 23.1669 7.77352 23.1425 7.81955C23.1181 7.86558 23.0848 7.9063 23.0446 7.93936C23.0043 7.97242 22.9578 7.99716 22.908 8.01214C21.8061 8.34368 20.687 8.6149 19.5557 8.8246C17.5749 9.18911 15.5649 9.3719 13.5508 9.37064Z" fill="#293FFF"/>
<path d="M13.5508 16.9359C11.1976 16.9373 8.84885 16.7331 6.53127 16.3255C6.48005 16.3164 6.43115 16.2972 6.3874 16.2689C6.34364 16.2408 6.3059 16.2043 6.27637 16.1614C6.24683 16.1186 6.22608 16.0703 6.21531 16.0194C6.20455 15.9685 6.20397 15.9159 6.21363 15.8648L6.93684 12.0125C6.95599 11.9104 7.01475 11.8199 7.10031 11.7609C7.18588 11.7019 7.29131 11.6791 7.39361 11.6975C11.4681 12.4023 15.6335 12.4023 19.708 11.6975C19.8102 11.6791 19.9157 11.7019 20.0013 11.7609C20.0868 11.8199 20.1456 11.9104 20.1647 12.0125L20.8853 15.8648C20.895 15.9159 20.8943 15.9685 20.8836 16.0194C20.8728 16.0703 20.8521 16.1186 20.8226 16.1614C20.793 16.2043 20.7553 16.2408 20.7115 16.2689C20.6678 16.2972 20.6189 16.3164 20.5677 16.3255C18.2509 16.733 15.9031 16.9372 13.5508 16.9359Z" fill="#1579FF"/>
<path d="M13.1544 24.5001C10.4653 24.4782 7.78272 24.2315 5.13473 23.7625C5.08363 23.7532 5.03487 23.7339 4.99127 23.7056C4.94767 23.6774 4.91008 23.6408 4.88067 23.598C4.85127 23.5551 4.83063 23.507 4.81994 23.4561C4.80926 23.4053 4.80874 23.3529 4.81841 23.3019L5.53769 19.4495C5.55684 19.3476 5.61541 19.2574 5.70068 19.1984C5.78595 19.1395 5.89104 19.1165 5.99314 19.1345C8.35888 19.5507 10.755 19.7702 13.157 19.7908C13.2615 19.7908 13.3616 19.8322 13.4355 19.9062C13.5093 19.98 13.5508 20.0802 13.5508 20.1846V24.1038C13.5511 24.1559 13.5411 24.2076 13.5213 24.2559C13.5015 24.3042 13.4723 24.3479 13.4355 24.3849C13.3986 24.4217 13.3548 24.4509 13.3065 24.4707C13.2583 24.4905 13.2066 24.5005 13.1544 24.5001Z" fill="#00B3FF"/>
</svg>
