<svg width="28" height="28" viewBox="0 0 28 28" fill="none" xmlns="http://www.w3.org/2000/svg">
<path d="M25.375 12.7358H18.7223L24.4845 9.40938L23.2186 7.21563L17.458 10.5436L20.7827 4.78137L18.5906 3.5155L15.2675 9.27612V2.625H12.7325V9.27775L9.40775 3.5155L7.21725 4.78137L10.542 10.542L4.78137 7.21725L3.5155 9.40775L9.27775 12.7341H2.625V15.2642H9.27612L3.5155 18.5906L4.78137 20.7844L10.542 17.458L7.21563 23.2186L9.40938 24.4845L12.7341 18.7223V25.375H15.2642V18.7223L18.5906 24.4845L20.7827 23.2186L17.4564 17.4564L23.217 20.7827L24.4829 18.5906L18.7223 15.2659H25.3734L25.375 12.7358ZM14 17.4418C13.0837 17.4418 12.205 17.0778 11.5571 16.4299C10.9092 15.782 10.5453 14.9033 10.5453 13.987C10.5453 13.0707 10.9092 12.192 11.5571 11.5441C12.205 10.8962 13.0837 10.5323 14 10.5323C14.9163 10.5323 15.795 10.8962 16.4429 11.5441C17.0908 12.192 17.4548 13.0707 17.4548 13.987C17.4548 14.9033 17.0908 15.782 16.4429 16.4299C15.795 17.0778 14.9163 17.4418 14 17.4418Z" fill="#625DF5"/>
</svg>
