<svg width="28" height="28" viewBox="0 0 28 28" fill="none" xmlns="http://www.w3.org/2000/svg">
<path d="M5.455 20.9318C4.9521 20.9329 4.45791 20.7977 4.02294 20.5399C3.58796 20.2821 3.22778 19.9109 2.9792 19.4644C2.73442 19.021 2.61234 18.518 2.62604 18.0091C2.63974 17.5003 2.7887 17.0049 3.05697 16.5759L8.15549 8.39813C8.41644 7.95862 8.78693 7.59773 9.22912 7.35233C9.6713 7.10692 10.1693 6.9858 10.6723 7.00133C11.175 7.01363 11.6654 7.16211 12.0934 7.43158C12.5214 7.70104 12.8716 8.08182 13.1082 8.53494C13.5835 9.4529 13.5241 10.5573 12.9548 11.419L7.85952 19.5968C7.60113 20.0081 7.24528 20.346 6.82495 20.5794C6.40462 20.8128 5.93341 20.934 5.455 20.9318Z" fill="#F62B54"/>
<path d="M14.2003 20.9315C13.172 20.9315 12.2257 20.3699 11.7289 19.4674C11.4846 19.0252 11.3628 18.5234 11.3765 18.016C11.3902 17.5085 11.5389 17.0143 11.8066 16.5866L16.8954 8.42756C17.1525 7.98187 17.5217 7.61455 17.9646 7.3637C18.4076 7.11286 18.9082 6.98762 19.4144 7.00097C20.4514 7.02414 21.3912 7.61662 21.8665 8.5434C22.3385 9.47019 22.2694 10.5812 21.6829 11.4407L16.5951 19.5998C16.3375 20.0093 15.9831 20.3459 15.5646 20.5787C15.1461 20.8114 14.6769 20.9327 14.2003 20.9315Z" fill="#FFCC00"/>
<path d="M22.7501 21.0001C24.1998 21.0001 25.375 19.825 25.375 18.3753C25.375 16.9257 24.1998 15.7505 22.7501 15.7505C21.3004 15.7505 20.1252 16.9257 20.1252 18.3753C20.1252 19.825 21.3004 21.0001 22.7501 21.0001Z" fill="#00CA72"/>
</svg>
