<svg width="32" height="32" viewBox="0 0 32 32" fill="none" xmlns="http://www.w3.org/2000/svg">
<path d="M29.0089 18.3374C29.0001 18.3867 28.9939 18.4365 28.9846 18.4858L28.9367 18.2031C28.9628 18.2471 28.9846 18.2929 29.0089 18.3374C29.1535 17.5488 29.2293 16.7416 29.2293 15.9349C29.2293 14.1458 28.8799 12.41 28.1895 10.7761C27.5235 9.19769 26.5706 7.7802 25.3556 6.56317C24.1424 5.34615 22.7274 4.39093 21.1537 3.7233C19.5241 3.03211 17.7925 2.68185 16.0078 2.68185C15.1666 2.68185 14.3241 2.76097 13.5042 2.91877C13.5024 2.91921 13.5002 2.91921 13.498 2.91966C13.5441 2.9441 13.5907 2.96589 13.6359 2.99122L13.3579 2.94766C13.4044 2.93877 13.4514 2.92899 13.498 2.91966C12.373 2.32004 11.1079 2 9.82732 2C7.73657 2 5.77088 2.81609 4.2925 4.29848C2.81457 5.78042 2 7.75086 2 9.84665C2 11.1806 2.34232 12.4918 2.98484 13.6506C2.99327 13.6026 2.99903 13.5542 3.00835 13.5062L3.05624 13.784C3.0314 13.7404 3.00968 13.6951 2.98484 13.6506C2.85448 14.4014 2.78575 15.1686 2.78575 15.9349C2.78575 17.7244 3.13517 19.4597 3.82558 21.0941C4.49071 22.673 5.44407 24.0896 6.65772 25.3066C7.87271 26.5236 9.2859 27.4802 10.8614 28.146C12.491 28.8385 14.223 29.1892 16.0078 29.1892C16.7846 29.1892 17.5633 29.1181 18.3233 28.983C18.279 28.9581 18.2337 28.9354 18.1885 28.9092L18.471 28.959C18.4222 28.9683 18.373 28.9741 18.3233 28.983C19.4944 29.6471 20.8202 30 22.174 30C24.2643 30 26.2291 29.1852 27.7075 27.7024C29.1863 26.2214 30 24.2505 30 22.1547C30 20.8163 29.6559 19.5006 29.0089 18.3374ZM16.0605 24.0518C11.3633 24.0518 9.26195 21.7369 9.26195 20.002C9.26195 19.1121 9.91733 18.4885 10.8206 18.4885C12.8306 18.4885 12.31 21.3817 16.0605 21.3817C17.9806 21.3817 19.0408 20.3367 19.0408 19.2673C19.0408 18.6241 18.7242 17.9111 17.46 17.5986L13.282 16.5532C9.91733 15.7073 9.30674 13.884 9.30674 12.17C9.30674 8.6114 12.6493 7.27525 15.7883 7.27525C18.6798 7.27525 22.0884 8.87721 22.0884 11.0121C22.0884 11.9269 21.2983 12.4589 20.3954 12.4589C18.6798 12.4589 18.9956 10.0787 15.5399 10.0787C13.8252 10.0787 12.8754 10.857 12.8754 11.9709C12.8754 13.0826 14.2296 13.4377 15.4056 13.7062L18.498 14.3943C21.8853 15.1508 22.7443 17.1332 22.7443 19.0006C22.7443 21.8924 20.5298 24.0518 16.0605 24.0518ZM18.1885 28.9092C18.2337 28.9354 18.279 28.9581 18.3233 28.983C18.373 28.9741 18.4222 28.9683 18.471 28.959L18.1885 28.9092ZM28.9846 18.4858C28.9939 18.4365 29.0001 18.3867 29.0089 18.3374C28.9846 18.2929 28.9628 18.2471 28.9367 18.2031L28.9846 18.4858ZM3.00835 13.5062C2.99903 13.5542 2.99327 13.6026 2.98484 13.6506C3.00968 13.6951 3.0314 13.7404 3.05624 13.784L3.00835 13.5062ZM13.6359 2.99122C13.5907 2.96589 13.5441 2.9441 13.498 2.91966C13.4514 2.92899 13.4044 2.93877 13.3579 2.94766L13.6359 2.99122Z" fill="#00AFF0"/>
</svg>
