<svg width="28" height="28" viewBox="0 0 28 28" fill="none" xmlns="http://www.w3.org/2000/svg">
<path fill-rule="evenodd" clip-rule="evenodd" d="M14 1.75C20.7655 1.75 26.25 7.23451 26.25 14C26.25 20.7655 20.7655 26.25 14 26.25C7.23451 26.25 1.75 20.7655 1.75 14C1.75 7.23451 7.23451 1.75 14 1.75ZM16.411 12.2515L14.0006 14.6624L16.4113 17.0736L14.0004 19.485L11.589 17.0736L14.0003 14.6625L11.589 12.2512L14.0004 9.84084L16.4112 12.2511L18.8224 9.84055L21.2332 12.2514L18.8224 14.6627L16.411 12.2515ZM11.5891 12.2514L9.17776 14.6627L6.76676 12.2514L9.17776 9.84055L11.5891 12.2514Z" fill="white"/>
</svg>
