<svg width="24" height="24" viewBox="0 0 24 24" fill="none" xmlns="http://www.w3.org/2000/svg">
<path fill-rule="evenodd" clip-rule="evenodd" d="M19.8867 1.5H4.12667C2.676 1.5 1.5 2.67525 1.5 4.125V19.875C1.5 21.3247 2.676 22.5 4.12667 22.5H19.8867C21.3321 22.4927 22.5 21.3196 22.5 19.875V4.125C22.5 2.68044 21.3321 1.50733 19.8867 1.5ZM5.875 4.125H9.375C10.3415 4.125 11.125 4.9085 11.125 5.875V18.125C11.125 19.0915 10.3415 19.875 9.375 19.875H5.875C4.9085 19.875 4.125 19.0915 4.125 18.125V5.875C4.125 4.9085 4.9085 4.125 5.875 4.125ZM18.125 4.125H14.625C13.6585 4.125 12.875 4.9085 12.875 5.875V12C12.875 12.9665 13.6585 13.75 14.625 13.75H18.125C19.0915 13.75 19.875 12.9665 19.875 12V5.875C19.875 4.9085 19.0915 4.125 18.125 4.125Z" fill="url(#paint0_linear_34882_3032)"/>
<defs>
<linearGradient id="paint0_linear_34882_3032" x1="12.0067" y1="22.5" x2="12.0067" y2="1.5" gradientUnits="userSpaceOnUse">
<stop stop-color="#0052CC"/>
<stop offset="0.51698" stop-color="#217EF8"/>
<stop offset="1" stop-color="#2684FF"/>
</linearGradient>
</defs>
</svg>
